<?xml version="1.0" encoding="UTF-8" standalone="no"?>
<svg
   xmlns:dc="http://purl.org/dc/elements/1.1/"
   xmlns:cc="http://creativecommons.org/ns#"
   xmlns:rdf="http://www.w3.org/1999/02/22-rdf-syntax-ns#"
   xmlns:svg="http://www.w3.org/2000/svg"
   xmlns="http://www.w3.org/2000/svg"
   viewBox="0 0 961.33331 458.66666"
   height="458.66666"
   width="961.33331"
   xml:space="preserve"
   id="svg2"
   version="1.1"><metadata
     id="metadata8"><rdf:RDF><cc:Work
         rdf:about=""><dc:format>image/svg+xml</dc:format><dc:type
           rdf:resource="http://purl.org/dc/dcmitype/StillImage" /></cc:Work></rdf:RDF></metadata><defs
     id="defs6" /><g
     transform="matrix(1.3333333,0,0,-1.3333333,0,458.66667)"
     id="g10"><g
       transform="scale(0.1)"
       id="g12"><path
         id="path14"
         style="fill:#00009a;fill-opacity:1;fill-rule:nonzero;stroke:none"
         d="m 6220.88,1462.62 c 3.99,1.33 184.76,97.04 269.83,103.69 85.07,6.64 111.66,-86.4 43.87,-118.3 -67.8,-31.9 -313.7,14.61 -313.7,14.61 z m -106.33,66.47 c 0,0 164.79,349.58 455.89,447.95 291.12,98.35 578.24,-58.49 623.43,-131.6 45.19,-73.1 -13.3,-229.95 -204.7,-252.55 -264.51,-27.91 -342.94,143.56 -432,156.85 -89.05,13.29 -293.75,-51.84 -442.62,-220.65 z m 471.87,624.73 c 0,0 229.95,-21.27 305.71,47.85 75.77,69.12 17.28,123.62 -67.79,110.33 -85.06,-13.3 -237.92,-158.18 -237.92,-158.18 z m 51.84,212.67 c 0,0 140.89,108.58 143.56,167.94 2.65,59.36 -71.78,79.29 -143.56,-167.94 z m -292.44,-283.12 c 0,0 244.59,151.53 223.31,728.41 -21.25,576.88 -244.57,550.29 -382.81,534.35 -138.24,-15.96 -175.45,-154.2 34.56,-348.26 210.02,-194.07 273.82,-630.05 124.94,-914.5 z m -346.25,-445.29 c 0,0 420.7,518.4 169.47,1144.46 -251.22,626.05 -893.23,733.73 -1311.93,594.16 -418.7,-139.57 -544.98,-328.32 -499.78,-434.65 45.19,-106.35 180.77,-114.32 406.74,-23.93 225.96,90.38 667.26,194.06 970.32,-18.61 303.06,-212.67 354.9,-797.53 265.18,-1261.43 z m -115.64,15.96 c 0,0 -1.99,458.57 -57.82,602.13 -55.83,143.55 -143.56,121.62 -141.56,-11.97 1.99,-133.58 185.42,-540.32 199.38,-590.16 z M 943.246,1321.07 c 0,0 -307.055,121.63 -249.234,303.06 57.824,181.44 -35.887,368.85 -173.461,382.81 C 382.98,2020.9 396.934,1729.8 500.617,1556.34 604.293,1382.88 805.668,1307.11 943.246,1321.07 Z M 370.02,1585.25 c 0,0 2.988,132.59 -32.907,185.42 -35.879,52.84 -70.769,29.91 -73.761,-7.97 -2.993,-37.89 90.722,-134.58 106.668,-177.45 z m 114.648,-186.42 c 0,0 -152.527,98.69 -222.316,90.72 -69.782,-7.98 -60.809,-138.58 222.316,-90.72 z m 426.676,-209.35 c 0,0 -219.324,135.57 -590.168,39.87 C -49.6797,1133.65 -9.80469,932.273 40.0391,850.523 89.8906,768.781 169.637,802.672 287.281,960.18 c 117.625,157.52 344.926,281.14 624.063,229.3 z m 613.696,97.53 c 0,50.8 -13.37,98.67 -40.05,143.6 -26.72,44.95 -60.26,88.25 -100.63,129.95 -40.4,41.68 -84.35,81.4 -131.9,119.19 -47.56,37.77 -91.52,75.53 -131.88,113.33 -40.4,37.76 -73.94,75.53 -100.63,113.33 -26.716,37.76 -40.052,76.84 -40.052,117.24 0,36.44 11.383,70 34.192,100.62 22.77,30.6 51.11,57.64 84.99,81.09 33.86,23.45 69.68,42.66 107.47,57.64 37.77,14.96 72.29,25.07 103.56,30.29 22.14,3.91 44.27,6.5 66.43,7.82 22.14,1.27 44.27,1.94 66.44,1.94 6.5,0 14.96,-0.33 25.4,-0.97 10.41,-0.67 20.83,-1.95 31.26,-3.91 10.41,-1.96 19.54,-5.55 27.36,-10.74 7.82,-5.23 11.72,-13.04 11.72,-23.45 0,-15.63 -6.84,-30.62 -20.51,-44.94 -13.68,-14.35 -28.33,-29 -43.97,-43.97 -15.63,-14.98 -30.29,-30.28 -43.97,-45.91 -13.67,-15.63 -20.51,-31.27 -20.51,-46.9 0,-14.35 4.88,-26.08 14.66,-35.17 9.77,-9.13 21.8,-13.68 36.14,-13.68 13.01,0 28,2.93 44.95,8.8 16.91,5.86 33.52,13.33 49.82,22.46 16.27,9.1 31.9,18.88 46.88,29.31 14.97,10.42 27.04,20.18 36.16,29.31 18.23,16.92 32.54,36.8 42.99,59.6 10.41,22.78 15.63,46.56 15.63,71.31 0,24.74 -7.51,44.61 -22.47,59.6 -14.99,14.96 -33.56,26.38 -55.68,34.2 -22.17,7.81 -45.28,13.01 -69.37,15.64 -24.12,2.58 -45.28,3.9 -63.5,3.9 -37.8,0 -81.43,-1.96 -130.91,-5.86 -49.53,-3.91 -99.66,-10.75 -150.47,-20.52 -50.8,-9.78 -100.62,-23.45 -149.46,-41.03 -48.86,-17.59 -92.513,-40.06 -130.923,-67.41 -38.437,-27.36 -69.363,-60.27 -92.816,-98.68 -23.442,-38.43 -35.168,-83.04 -35.168,-133.85 0,-58.61 14.66,-113.02 43.965,-163.15 29.308,-50.15 65.457,-97.06 108.445,-140.68 42.98,-43.66 90.187,-84.69 141.657,-123.1 51.45,-38.44 98.67,-75.9 141.66,-112.35 42.99,-36.48 79.14,-72.29 108.44,-107.47 29.32,-35.17 43.97,-71.02 43.97,-107.47 0,-32.57 -10.45,-60.9 -31.27,-85 -20.84,-24.11 -47.56,-44.93 -80.1,-62.52 -32.58,-17.58 -69.71,-31.93 -111.38,-42.98 -41.71,-11.09 -82.74,-20.22 -123.09,-27.36 -40.399,-7.17 -78.832,-12.06 -115.286,-14.65 -36.488,-2.64 -66.445,-3.91 -89.886,-3.91 -32.571,0 -64.481,4.22 -95.743,12.7 -31.265,8.45 -63.195,12.7 -95.746,12.7 -18.254,0 -33.214,-1.65 -44.937,-4.89 -11.727,-3.27 -17.586,-15.96 -17.586,-38.103 0,-13.031 6.164,-23.109 18.566,-30.289 12.36,-7.133 26.684,-12.359 42.981,-15.633 16.277,-3.23 32.547,-5.519 48.847,-6.832 16.27,-1.281 28.333,-2.594 36.149,-3.91 35.18,-3.898 69.676,-5.859 103.566,-5.859 37.762,0 80.743,1.961 128.953,5.859 48.182,3.91 98.342,10.742 150.462,20.523 52.08,9.766 102.88,23.11 152.4,40.051 49.49,16.913 93.8,38.413 132.87,64.483 39.08,26.04 70.65,57.95 94.76,95.74 24.09,37.77 36.15,81.4 36.15,130.92 z m 4406.08,60.57 c -3.91,7.81 -11.73,11.72 -23.45,11.72 -11.73,0 -21.83,-6.19 -30.29,-18.56 -8.48,-12.4 -15.33,-22.47 -20.52,-30.29 -13.04,-20.84 -31.93,-47.56 -56.65,-80.11 -24.78,-32.57 -51.49,-63.84 -80.13,-93.79 -28.66,-29.97 -58.3,-56.02 -88.9,-78.16 -30.62,-22.16 -59.59,-33.21 -86.95,-33.21 -13.04,0 -23.14,2.93 -30.28,8.8 -7.18,5.85 -12.4,13 -15.63,21.49 -3.28,8.44 -5.23,17.89 -5.87,28.32 -0.66,10.42 -0.96,20.18 -0.96,29.32 0,82.06 6.15,163.78 18.55,245.22 12.36,81.39 18.56,163.15 18.56,245.21 0,18.23 -1.65,37.43 -4.89,57.65 -3.25,20.18 -9.12,39.08 -17.58,56.66 -8.49,17.59 -19.87,32.23 -34.19,43.97 -14.35,11.72 -32.58,17.58 -54.71,17.58 -29.98,0 -61.55,-10.74 -94.77,-32.24 -33.21,-21.5 -65.79,-49.82 -97.69,-84.99 -31.94,-35.17 -63.21,-74.26 -93.79,-117.24 -30.62,-42.98 -58.96,-86.31 -85,-129.95 -26.08,-43.65 -49.52,-84.68 -70.34,-123.09 -20.86,-38.44 -37.12,-70.68 -48.86,-96.72 2.6,13 6.17,35.48 10.75,67.41 4.54,31.9 9.77,65.45 15.63,100.63 5.87,35.17 11.73,67.4 17.59,96.72 5.87,29.31 10.75,47.87 14.66,55.69 15.63,29.94 31.9,59.9 48.85,89.88 16.91,29.95 33.21,60.57 48.85,91.84 65.12,128.96 119.49,262.46 163.14,400.55 43.64,138.06 65.47,280.05 65.47,425.96 0,15.64 -1.32,34.19 -3.91,55.69 -2.63,21.5 -7.82,41.68 -15.63,60.57 -7.82,18.87 -18.56,34.84 -32.25,47.87 -13.68,13.01 -31.6,19.55 -53.73,19.55 -18.25,0 -35.84,-4.24 -52.75,-12.71 -16.95,-8.49 -32.25,-19.54 -45.91,-33.21 -13.69,-13.68 -26.08,-28.34 -37.14,-43.97 -11.08,-15.62 -20.51,-31.26 -28.33,-46.89 -31.26,-61.25 -57.98,-133.85 -80.11,-217.86 -22.17,-84.03 -41.03,-171.31 -56.66,-261.83 -15.64,-90.56 -29.01,-180.1 -40.06,-268.67 -11.08,-88.6 -20.52,-168.05 -28.34,-238.38 -6.53,-62.53 -13.36,-124.41 -20.51,-185.63 -3.25,-27.77 -6.59,-55.71 -9.98,-83.73 -8.38,-2.58 -15.81,-8.17 -22.24,-16.89 -9.13,-12.4 -16.94,-23.15 -23.45,-32.25 -11.72,-18.25 -30.62,-42.68 -56.67,-73.27 -26.07,-30.63 -54.7,-60.58 -85.96,-89.88 -31.27,-29.31 -62.53,-54.71 -93.8,-76.21 -31.26,-21.49 -58.61,-31.599 -82.06,-30.283 15.63,22.143 27.02,46.233 34.19,72.303 7.14,26.04 10.75,52.08 10.75,78.15 0,41.68 -6.54,82.71 -19.54,123.1 -13.04,40.36 -29.31,79.78 -48.85,118.21 -19.54,38.41 -39.75,76.52 -60.57,114.32 -20.86,37.76 -39.08,75.53 -54.72,113.33 11.73,29.93 22.14,61.54 31.27,94.75 9.1,33.22 13.68,66.1 13.68,98.68 0,10.41 -0.98,21.49 -2.93,33.22 -1.96,11.72 -5.22,23.11 -9.76,34.19 -4.58,11.05 -11.09,20.17 -19.55,27.35 -8.49,7.16 -18.57,10.75 -30.29,10.75 -23.44,0 -44.3,-8.48 -62.52,-25.4 -18.26,-16.94 -33.22,-37.13 -44.95,-60.57 -11.72,-23.45 -20.85,-48.21 -27.35,-74.25 -6.53,-26.07 -9.77,-48.85 -9.77,-68.39 0,-35.17 5.86,-69.7 17.59,-103.56 -44.3,-138.08 -110.74,-262.49 -199.31,-373.2 -5.31,-6.39 -9.81,-12.78 -13.84,-19.18 -19.53,-23.88 -40.26,-47.13 -62.34,-69.72 -27.35,-28.03 -55.39,-52.45 -84.03,-73.27 -28.66,-20.86 -54.7,-31.28 -78.15,-31.28 -15.63,0 -27.69,8.13 -36.15,24.43 -8.48,16.28 -14.66,35.17 -18.55,56.67 -3.91,21.49 -6.2,42.64 -6.84,63.5 -0.68,20.82 -0.99,36.45 -0.99,46.89 0,33.86 2.26,70 6.84,108.45 4.55,38.4 12.03,74.55 22.47,108.44 5.19,14.32 12.37,33.22 21.5,56.67 9.1,23.44 13.67,42.31 13.67,56.66 0,13 -4.88,21.49 -14.65,25.41 -9.77,3.91 -19.87,5.86 -30.29,5.86 -18.25,0 -32.24,-6.2 -42,-18.57 -9.77,-12.4 -17.93,-25.73 -24.43,-40.05 -6.53,-13.05 -15.97,-32.91 -28.33,-59.6 -12.4,-26.72 -27.05,-55.69 -43.96,-86.95 -16.95,-31.26 -34.87,-63.5 -53.73,-96.72 -18.9,-33.21 -38.1,-63.2 -57.65,-89.88 -19.54,-26.72 -38.44,-48.85 -56.66,-66.43 -18.26,-17.59 -34.53,-26.39 -48.86,-26.39 -11.72,0 -18.9,5.87 -21.48,17.59 -2.63,11.73 -3.92,21.5 -3.92,29.3 0,74.27 14.97,143.62 44.95,208.11 29.95,64.48 70.34,122.75 121.14,174.88 28.64,29.94 58.93,56.32 90.86,79.13 31.9,22.77 65.46,44.61 100.63,65.45 5.19,2.6 9.77,5.54 13.68,8.8 3.9,3.23 5.85,8.12 5.85,14.66 0,14.31 -7.17,27.99 -21.49,41.03 -14.34,13 -28.66,19.54 -42.98,19.54 -57.35,0 -112.34,-19.54 -165.11,-58.63 -52.75,-39.07 -99.65,-87.61 -140.69,-145.56 -41.03,-57.98 -73.94,-119.53 -98.67,-184.65 -11.59,-30.49 -20.35,-59.33 -26.5,-86.66 -2.86,-4.35 -5.67,-8.72 -8.66,-12.99 -13.04,-18.26 -30.28,-41.03 -51.78,-68.39 -21.49,-27.35 -44.94,-53.74 -70.35,-79.13 -25.4,-25.4 -51.77,-46.89 -79.13,-64.48 -27.35,-17.59 -52.75,-26.39 -76.2,-26.39 -27.36,0 -48.85,12.37 -64.48,37.13 -15.63,24.73 -28.03,54.05 -37.12,87.93 -9.13,33.86 -15,68.05 -17.59,102.58 -2.63,34.5 -3.91,61.55 -3.91,81.1 0,11.72 0.3,26.36 0.98,43.95 0.64,17.59 2.93,31.57 6.84,42.02 2.59,9.09 7.48,18.86 14.65,29.3 7.14,10.41 13.35,19.54 18.56,27.36 15.63,26.04 31.58,51.11 47.87,75.23 16.28,24.09 31.57,49.15 45.92,75.22 29.96,53.4 59.26,113.97 87.93,181.72 28.64,67.72 54.71,137.41 78.16,209.08 23.45,71.62 42.32,143.27 56.66,214.93 14.32,71.62 21.5,138.06 21.5,199.3 0,18.23 -1.95,37.77 -5.87,58.61 -3.9,20.83 -10.1,40.06 -18.56,57.64 -8.49,17.59 -20.21,31.91 -35.17,42.99 -14.99,11.06 -34.19,16.62 -57.64,16.62 -28.67,0 -57,-10.45 -85,-31.27 -28.03,-20.85 -54.07,-46.59 -78.15,-77.18 -24.12,-30.62 -45.29,-62.22 -63.51,-94.77 -18.25,-32.58 -32.58,-60.57 -42.99,-84.01 -54.7,-126.37 -93.14,-256.31 -115.27,-389.83 -22.18,-133.53 -33.23,-268.66 -33.23,-405.43 0,-24.76 0.98,-57.34 2.94,-97.7 1.56,-32.36 4.22,-66.69 7.87,-102.8 -1,-1.61 -2.02,-3.22 -2.97,-4.67 -20.86,-37.8 -46.27,-74.58 -76.22,-110.39 -29.97,-35.85 -63.5,-67.42 -100.62,-94.77 -37.13,-27.36 -76.88,-49.52 -119.2,-66.43 -42.34,-16.95 -86.3,-25.4 -131.88,-25.4 -19.54,0 -39.09,1.94 -58.62,5.85 18.22,2.6 34.83,8.8 49.82,18.57 14.96,9.77 28.98,21.16 42.01,34.19 26.05,24.73 49.49,55.69 70.35,92.82 20.82,37.12 38.74,76.2 53.73,117.23 14.96,41.03 26.68,82.38 35.17,124.07 8.46,41.68 12.7,80.12 12.7,115.29 0,26.04 -2.63,52.08 -7.81,78.16 -5.22,26.04 -13.68,49.16 -25.41,69.37 -11.72,20.17 -28.03,36.44 -48.84,48.84 -20.86,12.36 -46.9,18.56 -78.16,18.56 -31.27,0 -63.51,-9.77 -96.73,-29.3 -33.21,-19.55 -65.15,-43.67 -95.74,-72.3 -30.62,-28.67 -58.95,-58.31 -84.99,-88.91 -26.07,-30.61 -47.57,-57.65 -64.48,-81.09 2.59,22.14 5.52,44.61 8.79,67.42 3.24,22.77 4.88,45.25 4.88,67.41 0,11.72 -2.62,24.42 -7.81,38.1 -5.22,13.68 -12.4,26.69 -21.5,39.08 -9.12,12.36 -19.87,22.46 -32.23,30.29 -12.4,7.82 -25.11,11.71 -38.11,11.71 -16.94,0 -29.64,-5.85 -38.1,-17.58 -8.49,-11.72 -14.65,-25.4 -18.56,-41.03 -3.91,-15.63 -6.19,-32.25 -6.84,-49.83 -0.67,-17.58 -1.65,-32.24 -2.93,-43.95 -5.22,-45.62 -9.77,-91.21 -13.67,-136.79 -3.91,-45.6 -8.49,-91.19 -13.69,-136.78 -1.3,-13.02 -2.62,-30.61 -3.9,-52.74 -1.32,-22.17 -3.91,-39.08 -7.82,-50.81 -23.45,-70.35 -48.18,-146.88 -74.25,-229.587 -26.04,-82.711 -49.83,-167.071 -71.32,-253.043 -21.49,-85.969 -39.08,-170.973 -52.75,-254.977 -13.69,-84.027 -20.52,-162.496 -20.52,-235.453 0,-15.633 1.31,-35.172 3.91,-58.629 2.62,-23.441 7.81,-45.57 15.62,-66.4335 7.83,-20.8164 18.91,-38.7383 33.23,-53.7266 14.35,-14.9648 32.57,-22.4765 54.7,-22.4765 16.95,0 32.24,4.2461 45.92,12.707 13.68,8.4805 26.38,19.2305 38.1,32.2422 11.73,13.0312 21.8,27.043 30.29,42.0004 8.46,14.996 15.3,29.007 20.52,42.019 22.14,52.106 40.7,117.235 55.69,195.391 14.96,78.16 27.99,159.254 39.07,243.261 11.06,84.02 20.52,166.762 28.33,248.153 7.82,81.426 14.32,152.078 19.54,212.012 14.33,-20.86 33.87,-37.8 58.63,-50.813 24.72,-13.031 51.77,-23.441 81.09,-31.258 29.3,-7.824 58.61,-13.004 87.92,-15.633 29.31,-2.593 55.68,-3.91 79.13,-3.91 57.31,0 110.41,8.153 159.25,24.426 48.85,16.27 93.79,39.078 134.82,68.398 41.04,29.3 78.8,63.8 113.33,103.55 18.91,21.77 36.87,44.73 54.03,68.67 3.41,-18.99 7.13,-37.97 11.42,-56.95 10.41,-46.25 24.73,-87.93 42.99,-125.05 18.22,-37.126 40.06,-67.411 65.46,-90.856 25.4,-23.449 56.32,-35.172 92.8,-35.172 40.37,0 80.76,12.695 121.15,38.105 40.36,25.391 78.79,56.317 115.29,92.813 30.48,30.48 58.34,62.92 83.84,97.07 0.37,-3.03 0.7,-6.01 1.14,-9.15 3.23,-23.44 9.1,-45.6 17.59,-66.43 8.45,-20.85 20.51,-38.44 36.14,-52.76 15.64,-14.343 35.18,-21.488 58.63,-21.488 26.04,0 52.41,9.766 79.13,29.308 26.68,19.54 52.42,42.98 77.17,70.34 24.74,27.35 47.21,55.68 67.42,84.99 20.18,29.31 36.79,53.73 49.83,73.28 -1.32,-23.45 -0.68,-52.46 1.95,-86.95 2.59,-34.53 9.09,-67.75 19.54,-99.65 10.42,-31.94 25.4,-59.295 44.94,-82.068 19.54,-22.777 45.58,-34.187 78.15,-34.187 33.86,0 68.06,9.761 102.59,29.304 34.5,19.535 67.08,43.631 97.69,72.301 30.59,28.63 58.93,59.25 85,91.83 20.43,25.51 38.36,48.55 53.97,69.3 9.78,12.2 19.46,25.55 29.06,40.12 18.86,28.64 36.78,58.61 53.73,89.89 16.92,31.25 32.24,62.82 45.92,94.76 13.68,31.9 25.06,60.88 34.19,86.94 15.63,-23.44 31.57,-51.13 47.88,-83.03 16.27,-31.93 30.93,-64.82 43.95,-98.67 13.01,-33.9 23.76,-67.75 32.25,-101.61 8.46,-33.89 12.7,-65.8 12.7,-95.74 0,-49.53 -13.37,-90.22 -40.06,-122.13 -26.71,-31.906 -66.13,-47.871 -118.22,-47.871 -26.06,0 -50.15,2.621 -72.29,7.813 -22.16,5.226 -44.3,14.961 -66.43,29.312 -6.54,3.906 -12.06,7.136 -16.62,9.776 -4.57,2.58 -10.73,3.91 -18.55,3.91 -20.82,0 -31.27,-9.78 -31.27,-29.311 0,-9.101 1.95,-16.922 5.86,-23.457 3.91,-6.5 9.11,-13.004 15.64,-19.539 28.64,-27.355 64.79,-44.934 108.43,-52.754 43.64,-7.816 84.34,-11.726 122.13,-11.726 70.34,0 134.48,8.156 192.46,24.425 57.95,16.309 110.71,40.055 158.27,71.321 47.54,31.261 91.51,69.671 131.9,115.281 26.01,29.39 51.23,61.25 75.64,95.52 -2.84,-21.86 -5.86,-43.64 -9.23,-65.23 -5.22,-33.22 -7.81,-66.77 -7.81,-100.63 0,-10.45 0.64,-22.461 1.95,-36.152 1.28,-13.68 4.55,-26.368 9.77,-38.098 5.19,-11.723 12.03,-21.801 20.52,-30.281 8.45,-8.461 19.84,-12.707 34.19,-12.707 14.32,0 27.35,3.91 39.07,11.718 11.73,7.825 21.8,17.59 30.29,29.313 8.46,11.73 16.27,24.117 23.46,37.129 7.14,13.012 13.34,25.398 18.55,37.128 7.82,16.91 21.81,44.6 42.02,83.04 20.17,38.41 43.63,81.73 70.34,129.94 26.68,48.17 55.69,98 86.95,149.47 31.26,51.44 61.21,98.68 89.88,141.67 28.63,42.98 55.35,78.15 80.11,105.5 24.73,27.37 44.27,41.04 58.62,41.04 10.4,0 16.27,-6.2 17.59,-18.56 1.28,-12.4 1.96,-21.83 1.96,-28.33 v -15.63 c -6.54,-70.35 -13.38,-140.69 -20.53,-211.03 -7.18,-70.34 -10.75,-140.69 -10.75,-211.02 0,-18.27 0.31,-42.69 0.98,-73.28 0.64,-30.62 4.22,-60.26 10.75,-88.9 6.5,-28.675 16.6,-53.397 30.28,-74.257 13.68,-20.82 34.2,-31.265 61.55,-31.265 45.59,0 91.5,12.707 137.75,38.097 46.23,25.414 89.55,57.315 129.94,95.755 40.37,38.41 76.85,79.77 109.42,124.07 32.54,44.27 58.62,85.3 78.16,123.1 2.59,5.19 5.19,10.08 7.82,14.65 2.6,4.55 3.9,10.08 3.9,16.61 0,10.41 -1.95,19.55 -5.85,27.36 z m -944.74,452.34 v 0 c 7.15,54.03 16.28,115.28 27.36,183.68 11.06,68.37 24.08,139.35 39.08,212.97 14.96,73.58 31.26,140.98 48.84,202.23 17.59,61.22 35.81,111.38 54.72,150.45 18.86,39.08 38.74,58.63 59.6,58.63 6.5,0 11.05,-3.92 13.67,-11.73 2.6,-7.82 4.88,-16.95 6.84,-27.36 1.95,-10.44 2.93,-20.84 2.93,-31.25 0,-10.46 0,-17.59 0,-21.51 0,-59.93 -8.49,-127 -25.4,-201.25 -16.95,-74.25 -38.1,-149.17 -63.51,-224.71 -25.4,-75.56 -53.73,-148.49 -84.99,-218.84 -31.26,-70.34 -61.88,-132.22 -91.83,-185.62 1.27,22.13 5.52,60.23 12.69,114.31 z M 1703.81,666.625 v 0 c -11.08,-111.375 -25.74,-222.41 -43.97,-333.141 -1.27,-6.507 -3.9,-21.152 -7.8,-43.957 -3.91,-22.793 -8.8,-46.91 -14.66,-72.308 -5.87,-25.399 -12.7,-48.18 -20.51,-68.391 -7.82,-20.176 -15.64,-30.273 -23.46,-30.273 -6.5,0 -11.05,3.898 -13.67,11.715 -2.6,7.816 -4.89,16.609 -6.84,26.382 -1.95,9.766 -2.94,19.875 -2.94,30.282 0,9.125 0,15.632 0,19.543 0,50.796 4.59,112.046 13.68,183.671 9.13,71.653 21.5,144.93 37.13,219.813 15.63,74.926 32.91,147.215 51.78,216.891 18.87,69.707 38.11,127.98 57.65,174.878 -6.55,-112.011 -15.34,-223.722 -26.39,-335.105 z m 393.73,469.925 v 0 c -35.18,-37.8 -72.3,-56.66 -111.38,-56.66 -27.36,0 -47.23,4.55 -59.59,13.68 -12.4,9.09 -24.43,13.67 -36.16,13.67 -5.21,0 -9.77,-1.95 -13.68,-5.86 1.29,10.41 2.94,28.33 4.89,53.73 1.96,25.41 4.55,51.78 7.82,79.14 3.23,27.35 6.84,52.76 10.74,76.2 3.91,23.45 7.82,38.42 11.73,44.94 10.41,19.54 27.99,46.22 52.76,80.12 24.72,33.85 51.78,66.74 81.08,98.67 29.31,31.91 59.26,59.9 89.89,84.02 30.59,24.09 56.96,36.14 79.13,36.14 24.73,0 40.7,-11.07 47.87,-33.21 7.15,-22.17 10.75,-42.99 10.75,-62.53 0,-32.57 -7.51,-75.89 -22.48,-129.93 -14.98,-54.08 -35.5,-106.82 -61.54,-158.28 -26.07,-51.47 -56.66,-96.07 -91.83,-133.84 z m 666.28,480.67 v 0 c 0,9.1 0,18.87 0,29.32 0,93.79 11.39,191.78 34.19,294.06 22.78,102.24 47.87,198.33 75.23,288.21 5.19,15.63 12.7,39.08 22.47,70.34 9.77,31.26 21.49,61.86 35.17,91.83 13.68,29.96 29.61,56.33 47.87,79.14 18.23,22.77 37.77,34.19 58.62,34.19 7.82,0 13.68,-2.92 17.59,-8.79 3.91,-5.86 6.83,-12.7 8.79,-20.52 1.95,-7.81 2.93,-16.3 2.93,-25.4 0,-7.81 0,-13.67 0,-17.58 0,-62.53 -9.77,-131.59 -29.31,-207.12 -19.54,-75.56 -43.97,-151.43 -73.28,-227.63 -29.3,-76.22 -61.88,-149.82 -97.69,-220.8 -35.85,-71.02 -69.36,-133.2 -100.62,-186.6 -1.32,10.41 -1.96,19.54 -1.96,27.35 z M 6945.3,4.14844 H 2204.34 V 78.918 H 6945.3 Z M 5799.32,475.258 c 0.15,0.277 0.32,0.539 0.5,0.801 1.73,2.515 4.36,3.898 7.41,3.898 h 30.6 c 3.81,0 7.06,-2.246 8.42,-5.82 l 70.63,-186.688 70.64,186.688 c 1.36,3.574 4.61,5.82 8.42,5.82 h 30.59 c 3.06,0 5.69,-1.387 7.42,-3.918 1.73,-2.523 2.07,-5.488 0.97,-8.336 l -94.59,-243.765 c -1.37,-3.536 -4.6,-5.747 -8.39,-5.747 h -31.53 c -3.8,0 -7.05,2.231 -8.4,5.789 l -92.69,242.469 v -19.496 c 0,-2.512 -0.91,-4.676 -2.71,-6.433 -1.8,-1.758 -3.98,-2.622 -6.49,-2.567 -57.68,1.285 -71.28,-41.418 -71.28,-91.23 V 227.191 c 0,-4.953 -4.04,-9 -8.99,-9 h -28.23 c -4.96,0 -9,4.047 -9,9 v 243.766 c 0,4.953 4.04,9 9,9 h 28.23 c 4.95,0 8.99,-4.047 8.99,-9 v -12.969 c 16.43,20.43 39.07,28.551 71.48,28.551 4.96,0 9,-4.043 9,-9 z M 2276.39,367.84 V 227.191 c 0,-4.953 -4.05,-9 -9,-9 h -32 c -4.95,0 -9,4.047 -9,9 V 566.02 c 0,4.949 4.05,8.996 9,8.996 h 123.77 c 71.78,0 119.59,-28.567 119.59,-103.59 0,-80.953 -70.42,-103.586 -138.89,-103.586 z m 214.91,-18.766 c 0,75.586 41.18,137.465 121.95,137.465 81.54,0 121.93,-61.203 121.93,-137.465 0,-74.715 -42.5,-138.047 -122,-137.472 -79.56,0.574 -121.88,61.461 -121.88,137.472 z m 257.86,0 c 0,75.586 41.18,137.465 121.94,137.465 81.54,0 121.94,-61.203 121.94,-137.465 0,-74.715 -42.5,-138.047 -122,-137.472 -79.56,0.574 -121.88,61.461 -121.88,137.472 z M 3027.25,227.191 V 566.02 c 0,4.949 4.05,8.996 9,8.996 h 28.24 c 4.96,0 9,-4.047 9,-8.996 V 227.191 c 0,-4.953 -4.04,-9 -9,-9 h -28.24 c -4.95,0 -9,4.047 -9,9 z m 385.85,14.84 c -23.46,-19.863 -52.64,-30.429 -84.17,-30.429 -48.18,0 -90.41,27.203 -90.41,79.117 0,54.691 44.73,75.945 93,82.336 l 39.42,5.215 c 9.66,0.878 25.52,3.304 34.3,7.253 4.83,2.172 5.04,12.903 5.04,17.196 0,31.488 -23.23,40.418 -51.7,40.418 -34.85,0 -57.58,-9.867 -62.12,-47.157 -0.56,-4.542 -4.37,-7.906 -8.94,-7.906 h -28.71 c -2.59,0 -4.82,0.969 -6.59,2.875 -1.77,1.899 -2.57,4.196 -2.38,6.781 4.58,62.208 51.18,88.809 109.21,88.809 55.72,0 97.47,-24.086 97.47,-84.754 V 269.074 c 0,-2.156 0.18,-11.844 1.89,-13.449 2.39,-1.363 13.42,2.285 15.76,3.117 2.84,0.996 5.73,0.594 8.19,-1.14 2.47,-1.747 3.8,-4.34 3.8,-7.348 v -22.121 c 0,-3.938 -2.41,-7.289 -6.15,-8.539 -7.83,-2.606 -16.65,-5.164 -24.96,-5.164 -5.06,0 -9.58,0.504 -14.2,1.539 -16.61,2.48 -24.35,12.902 -27.75,26.062 z m 141.75,216.41 c 19.51,17.196 40.69,28.098 69.58,28.098 32.78,0 62.77,-10.832 81.8,-38.754 13.01,-19.105 13.79,-38.793 13.79,-61.066 V 227.191 c 0,-4.953 -4.04,-9 -9,-9 h -28.23 c -4.96,0 -9,4.047 -9,9 V 386.25 c 0,38.879 -14.1,56.887 -54.06,56.887 -26.98,0 -50.16,-16.215 -59.3,-41.594 -5.22,-14.461 -5.58,-27.855 -5.58,-43.059 V 227.191 c 0,-4.953 -4.05,-9 -9,-9 h -28.24 c -4.95,0 -9,4.047 -9,9 v 243.766 c 0,4.953 4.05,9 9,9 h 28.24 c 4.95,0 9,-4.047 9,-9 z M 3954.7,243.875 c -19.86,-20.207 -48.84,-32.273 -76.65,-32.273 -83.62,0 -119.11,59.839 -119.11,137.003 0,73.02 38,137.934 117.7,137.934 28.48,0 57.29,-10.18 78.06,-29.492 V 566.02 c 0,4.949 4.04,8.996 9,8.996 h 28.23 c 4.95,0 9,-4.047 9,-8.996 V 227.191 c 0,-4.953 -4.05,-9 -9,-9 h -28.23 c -4.96,0 -9,4.047 -9,9 z m 216.89,240.254 c 0,67.773 63.12,99.824 123.82,99.824 68.22,0 123.5,-38.695 122.89,-110.254 -0.05,-4.926 -4.07,-8.922 -9,-8.922 h -30.59 c -4.95,0 -9,4.047 -9,9 0,44.399 -33.18,64.879 -74.3,64.879 -38.11,0 -81.41,-19.168 -73.94,-64.355 12.82,-77.528 206.71,-18.774 206.71,-157.231 0,-77.277 -63.07,-107.82 -132.77,-107.82 -74.79,0 -131.82,39.988 -131.82,119.117 0,4.953 4.05,9 9,9 h 31.06 c 4.69,0 8.56,-3.562 8.96,-8.234 4.53,-52.996 37.86,-74.594 88.45,-74.594 40.03,0 77.13,16.688 77.13,61.113 0,94.078 -206.6,27.739 -206.6,168.477 z m 338.92,-29.863 c 19.85,20.207 48.82,32.273 76.64,32.273 83.62,0 119.12,-59.828 119.12,-136.988 0,-73.016 -37.99,-137.949 -117.7,-137.949 -28.48,0 -57.3,10.183 -78.06,29.5 V 131.188 c 0,-4.954 -4.05,-9 -9,-9 h -28.24 c -4.95,0 -9,4.046 -9,9 v 339.769 c 0,4.953 4.05,9 9,9 h 28.24 c 4.95,0 9,-4.047 9,-9 z m 396.54,-212.235 c -23.45,-19.863 -52.63,-30.429 -84.17,-30.429 -48.17,0 -90.41,27.203 -90.41,79.117 0,54.691 44.73,75.945 92.99,82.336 l 39.43,5.215 c 9.67,0.878 25.53,3.304 34.3,7.253 4.83,2.168 5.04,12.911 5.04,17.196 0,31.488 -23.23,40.418 -51.7,40.418 -34.85,0 -57.57,-9.875 -62.13,-47.157 -0.56,-4.542 -4.36,-7.906 -8.94,-7.906 h -28.69 c -2.59,0 -4.82,0.969 -6.59,2.875 -1.77,1.899 -2.57,4.196 -2.39,6.781 4.58,62.208 51.18,88.809 109.21,88.809 55.72,0 97.46,-24.086 97.46,-84.754 V 269.074 c 0,-2.156 0.18,-11.847 1.9,-13.445 2.38,-1.375 13.43,2.281 15.76,3.105 2.84,1.004 5.73,0.602 8.19,-1.132 2.47,-1.747 3.81,-4.34 3.81,-7.348 v -22.121 c 0,-3.938 -2.42,-7.289 -6.16,-8.539 -7.84,-2.606 -16.65,-5.164 -24.96,-5.164 -5.06,0 -9.57,0.496 -14.19,1.539 -16.61,2.48 -24.36,12.902 -27.76,26.062 z m 257.93,87.102 c 4.54,-52.996 37.86,-74.594 88.45,-74.594 40.03,0 77.12,16.688 77.12,61.113 0,94.078 -206.59,27.739 -206.59,168.477 0,67.773 63.12,99.824 123.83,99.824 68.19,0 123.48,-38.699 122.87,-110.254 -0.04,-4.933 -4.07,-8.922 -9,-8.922 h -30.58 c -4.95,0 -9,4.047 -9,9 0,44.399 -33.18,64.879 -74.29,64.879 -38.12,0 -81.42,-19.168 -73.95,-64.355 12.82,-77.528 206.71,-18.774 206.71,-157.231 0,-77.277 -63.07,-107.82 -132.76,-107.82 -74.8,0 -131.84,39.988 -131.84,119.117 0,4.953 4.05,9 9,9 h 31.07 c 4.69,0 8.57,-3.562 8.96,-8.234 z m 284,4.344 c 2.49,-42.231 25.68,-78.461 72.66,-78.461 32.2,0 57.55,17.105 65.13,49.07 0.97,4.113 4.53,6.926 8.75,6.926 h 31.53 c 2.95,0 5.49,-1.274 7.24,-3.649 1.75,-2.367 2.23,-5.168 1.37,-7.988 -17.16,-56.047 -53.4,-87.773 -114.02,-87.773 -82.93,0 -121,59.16 -121,136.523 0,72.426 43.37,138.414 121,138.414 84.34,0 116.7,-67.965 116.3,-144.113 -0.03,-4.938 -4.06,-8.949 -9,-8.949 z m 609.47,190.652 v 41.891 c 0,4.949 4.05,8.996 9,8.996 h 31.06 c 4.95,0 9,-4.047 9,-8.996 v -41.891 c 0,-4.953 -4.05,-9 -9,-9 h -31.06 c -4.95,0 -9,4.047 -9,9 z m 1.41,-296.938 v 243.766 c 0,4.953 4.05,9 9,9 h 28.23 c 4.96,0 9,-4.047 9,-9 V 227.191 c 0,-4.953 -4.04,-9 -9,-9 h -28.23 c -4.95,0 -9,4.047 -9,9 z m 269.48,164.696 c -8.73,31.988 -29.94,51.25 -63.79,51.25 -52.51,0 -72.88,-48.836 -72.88,-94.532 0,-46.324 19.97,-93.589 72.88,-93.589 37.31,0 60.03,21.597 65.95,57.859 0.71,4.395 4.43,7.555 8.88,7.555 h 30.11 c 2.76,0 5.14,-1.11 6.91,-3.239 1.77,-2.117 2.44,-4.66 1.94,-7.378 -11.12,-60.872 -50.53,-98.211 -113.79,-98.211 -82.71,0 -121,59.937 -121,137.003 0,72.704 42.91,137.934 121,137.934 60.37,0 100.93,-29.969 110.08,-90.949 0.41,-2.684 -0.31,-5.16 -2.08,-7.215 -1.76,-2.055 -4.1,-3.121 -6.82,-3.121 h -28.71 c -4.12,0 -7.6,2.652 -8.68,6.633 z m 120.46,-58.41 c 2.5,-42.231 25.68,-78.461 72.66,-78.461 32.2,0 57.56,17.097 65.13,49.07 0.98,4.113 4.54,6.926 8.76,6.926 h 31.53 c 2.94,0 5.48,-1.274 7.23,-3.649 1.75,-2.367 2.23,-5.168 1.37,-7.988 -17.15,-56.055 -53.4,-87.773 -114.02,-87.773 -82.92,0 -120.99,59.16 -120.99,136.523 0,72.426 43.36,138.414 120.99,138.414 84.35,0 116.71,-67.949 116.31,-144.113 -0.03,-4.938 -4.06,-8.949 -9,-8.949 z m 256.5,-28.176 c 8.04,-37.699 26.12,-50.285 64.14,-50.285 22.76,0 51.24,8.941 51.24,36.175 0,58.805 -156.25,13.45 -156.25,116.704 0,53.48 45.73,78.644 94.65,78.644 57.57,0 95.44,-25.207 103.06,-84.559 0.34,-2.652 -0.4,-5.078 -2.16,-7.089 -1.78,-2.012 -4.09,-3.055 -6.77,-3.055 h -28.71 c -4.53,0 -8.3,3.285 -8.91,7.773 -4.52,32.77 -25.91,43.528 -56.97,43.528 -21.57,0 -46.06,-7.18 -46.06,-32.883 0,-54.707 156.24,-18.024 156.24,-118.586 0,-59.426 -57.5,-80.066 -108.29,-80.066 -55.9,0 -98.8,34.511 -101.71,91.359 -0.13,2.559 0.71,4.805 2.47,6.664 1.76,1.855 3.96,2.797 6.52,2.797 h 28.71 c 4.3,0 7.91,-2.918 8.8,-7.121 z M 2276.39,529.719 V 413.137 h 64.41 c 46.41,0 87.95,4.422 87.95,60.64 0,46.801 -38.41,55.942 -78.53,55.942 z m 336.86,-86.582 c -54.16,0 -73.83,-46.758 -73.83,-94.063 0,-48.047 19.58,-94.058 73.83,-94.058 53.9,0 74.01,46.832 73.81,94.023 -0.21,49.231 -17.29,94.098 -73.81,94.098 z m 257.85,0 c -54.16,0 -73.83,-46.758 -73.83,-94.063 0,-48.054 19.59,-94.058 73.83,-94.058 53.91,0 74.03,46.832 73.83,94.023 -0.22,49.231 -17.3,94.098 -73.83,94.098 z m 539.18,-100.731 c -20.57,-6.379 -41.5,-8.156 -63.25,-9.832 -27.26,-2.097 -60.4,-9.484 -60.4,-42.801 0,-24.433 22.04,-34.757 43.71,-34.757 38.95,0 79.94,17.55 79.94,62.054 z m 471.06,100.731 c -57.02,0 -76.19,-51.789 -74.29,-101.52 0.36,-46.758 24.02,-86.601 74.29,-86.601 52.94,0 73.36,48.574 73.36,94.992 0,44.316 -23.3,93.129 -73.36,93.129 z m 702.51,-188.121 c 57.04,0 76.21,51.773 74.3,101.511 -0.35,46.774 -24.02,86.61 -74.3,86.61 -52.93,0 -73.34,-48.602 -73.34,-95.012 0,-44.305 23.3,-93.109 73.34,-93.109 z m 320.38,87.39 c -20.56,-6.379 -41.49,-8.156 -63.25,-9.832 -27.26,-2.097 -60.39,-9.484 -60.39,-42.801 0,-24.433 22.04,-34.757 43.71,-34.757 38.96,0 79.93,17.55 79.93,62.054 z m 685.24,32.606 c -2.99,38.429 -25.48,68.125 -67.83,68.125 -41.74,0 -64.06,-31.36 -71.34,-68.125 z m 1000.83,0 c -2.99,38.437 -25.49,68.125 -67.84,68.125 -41.73,0 -64.06,-31.367 -71.33,-68.125 h 139.17" /><path
         id="path16"
         style="fill:#ff6600;fill-opacity:1;fill-rule:nonzero;stroke:none"
         d="m 1612.77,1287.01 c 0,50.8 -13.37,98.67 -40.05,143.61 -26.72,44.95 -60.27,88.23 -100.63,129.94 -40.39,41.67 -84.36,81.4 -131.89,119.19 -47.57,37.77 -91.54,75.53 -131.9,113.33 -40.39,37.76 -73.94,75.53 -100.62,113.33 -26.72,37.77 -40.06,76.84 -40.06,117.24 0,36.45 11.39,70 34.2,100.62 22.77,30.6 51.11,57.65 84.99,81.09 33.86,23.45 69.67,42.66 107.47,57.64 37.76,14.96 72.29,25.07 103.56,30.29 22.13,3.91 44.27,6.5 66.43,7.82 22.14,1.27 44.27,1.94 66.44,1.94 6.5,0 14.96,-0.33 25.4,-0.97 10.41,-0.67 20.82,-1.95 31.26,-3.91 10.41,-1.95 19.54,-5.55 27.36,-10.75 7.81,-5.21 11.72,-13.03 11.72,-23.44 0,-15.63 -6.84,-30.62 -20.51,-44.94 -13.69,-14.35 -28.34,-29 -43.97,-43.97 -15.63,-14.99 -30.29,-30.28 -43.97,-45.91 -13.67,-15.64 -20.51,-31.27 -20.51,-46.9 0,-14.35 4.88,-26.08 14.65,-35.17 9.77,-9.13 21.8,-13.68 36.15,-13.68 13.01,0 28,2.93 44.94,8.79 16.92,5.87 33.53,13.35 49.83,22.48 16.27,9.09 31.9,18.87 46.89,29.3 14.96,10.42 27.02,20.18 36.15,29.31 18.22,16.92 32.55,36.79 42.99,59.6 10.41,22.78 15.63,46.56 15.63,71.31 0,24.74 -7.51,44.62 -22.47,59.6 -14.99,14.97 -33.56,26.38 -55.69,34.2 -22.17,7.81 -45.27,13.01 -69.36,15.63 -24.12,2.6 -45.28,3.91 -63.5,3.91 -37.8,0 -81.43,-1.96 -130.92,-5.86 -49.52,-3.91 -99.65,-10.75 -150.46,-20.52 -50.8,-9.77 -100.62,-23.45 -149.47,-41.03 -48.85,-17.59 -92.51,-40.06 -130.92,-67.42 -38.434,-27.35 -69.364,-60.26 -92.809,-98.67 -23.449,-38.43 -35.172,-83.04 -35.172,-133.84 0,-58.62 14.656,-113.03 43.965,-163.16 29.313,-50.16 65.457,-97.06 108.446,-140.68 42.98,-43.66 90.18,-84.69 141.66,-123.1 51.44,-38.44 98.68,-75.9 141.66,-112.35 42.99,-36.48 79.14,-72.3 108.45,-107.47 29.3,-35.17 43.96,-71.01 43.96,-107.47 0,-32.57 -10.45,-60.91 -31.27,-84.99 -20.85,-24.12 -47.56,-44.94 -80.11,-62.53 -32.57,-17.58 -69.7,-31.93 -111.37,-42.98 -41.71,-11.09 -82.74,-20.22 -123.1,-27.36 -40.39,-7.18 -78.83,-12.06 -115.28,-14.65 -36.483,-2.64 -66.437,-3.91 -89.882,-3.91 -32.578,0 -64.476,4.21 -95.746,12.7 -31.262,8.45 -63.195,12.7 -95.742,12.7 -18.258,0 -33.219,-1.65 -44.942,-4.89 -11.726,-3.26 -17.585,-15.96 -17.585,-38.099 0,-13.039 6.167,-23.113 18.562,-30.289 12.363,-7.141 26.684,-12.359 42.984,-15.633 16.274,-3.23 32.547,-5.523 48.852,-6.836 16.273,-1.277 28.332,-2.594 36.144,-3.91 35.172,-3.902 69.672,-5.855 103.563,-5.855 37.762,0 80.754,1.953 128.962,5.855 48.17,3.91 98.33,10.746 150.45,20.523 52.08,9.766 102.89,23.106 152.41,40.055 49.49,16.909 93.79,38.399 132.87,64.489 39.08,26.03 70.64,57.94 94.76,95.73 24.09,37.77 36.15,81.4 36.15,130.92 z m 4406.08,60.56 c -3.92,7.83 -11.73,11.73 -23.46,11.73 -11.71,0 -21.83,-6.19 -30.28,-18.56 -8.48,-12.4 -15.33,-22.47 -20.52,-30.29 -13.04,-20.85 -31.93,-47.56 -56.66,-80.11 -24.76,-32.57 -51.48,-63.83 -80.12,-93.79 -28.66,-29.97 -58.31,-56.02 -88.9,-78.16 -30.62,-22.16 -59.59,-33.21 -86.95,-33.21 -13.04,0 -23.14,2.93 -30.28,8.79 -7.18,5.86 -12.4,13.01 -15.64,21.5 -3.27,8.45 -5.22,17.89 -5.86,28.32 -0.67,10.42 -0.97,20.18 -0.97,29.31 0,82.07 6.16,163.8 18.56,245.23 12.36,81.39 18.56,163.15 18.56,245.21 0,18.23 -1.65,37.44 -4.88,57.65 -3.27,20.17 -9.13,39.08 -17.59,56.66 -8.49,17.59 -19.88,32.24 -34.19,43.97 -14.35,11.72 -32.58,17.59 -54.72,17.59 -29.97,0 -61.54,-10.75 -94.76,-32.25 -33.21,-21.5 -65.79,-49.82 -97.69,-84.99 -31.94,-35.17 -63.21,-74.26 -93.8,-117.24 -30.62,-42.98 -58.95,-86.31 -84.99,-129.94 -26.08,-43.66 -49.53,-84.69 -70.35,-123.1 -20.85,-38.44 -37.12,-70.68 -48.85,-96.72 2.6,13.01 6.17,35.47 10.75,67.41 4.55,31.9 9.78,65.46 15.63,100.63 5.87,35.17 11.73,67.41 17.59,96.72 5.86,29.31 10.74,47.87 14.66,55.69 15.63,29.95 31.9,59.9 48.84,89.88 16.92,29.95 33.22,60.57 48.85,91.84 65.12,128.96 119.5,262.46 163.15,400.55 43.63,138.06 65.47,280.06 65.47,425.96 0,15.64 -1.32,34.19 -3.91,55.69 -2.63,21.5 -7.82,41.68 -15.63,60.57 -7.83,18.87 -18.57,34.84 -32.25,47.87 -13.68,13.01 -31.59,19.55 -53.73,19.55 -18.26,0 -35.84,-4.25 -52.75,-12.71 -16.95,-8.48 -32.25,-19.54 -45.92,-33.21 -13.68,-13.68 -26.08,-28.34 -37.13,-43.97 -11.08,-15.63 -20.51,-31.26 -28.33,-46.89 -31.26,-61.25 -57.98,-133.85 -80.12,-217.86 -22.16,-84.03 -41.02,-171.31 -56.65,-261.84 -15.64,-90.55 -29.01,-180.1 -40.06,-268.66 -11.08,-88.6 -20.52,-168.04 -28.34,-238.38 -6.53,-62.53 -13.37,-124.41 -20.51,-185.63 -3.25,-27.77 -6.59,-55.71 -9.97,-83.74 -8.39,-2.57 -15.83,-8.16 -22.25,-16.88 -9.14,-12.4 -16.95,-23.15 -23.45,-32.25 -11.72,-18.25 -30.63,-42.68 -56.67,-73.27 -26.07,-30.63 -54.71,-60.57 -85.97,-89.88 -31.26,-29.32 -62.52,-54.71 -93.79,-76.21 -31.27,-21.49 -58.62,-31.595 -82.06,-30.279 15.63,22.139 27.02,46.229 34.19,72.289 7.14,26.05 10.75,52.09 10.75,78.16 0,41.67 -6.54,82.71 -19.54,123.1 -13.04,40.36 -29.31,79.78 -48.85,118.21 -19.54,38.41 -39.75,76.52 -60.57,114.32 -20.86,37.76 -39.08,75.53 -54.71,113.32 11.72,29.95 22.13,61.55 31.26,94.76 9.1,33.22 13.67,66.1 13.67,98.68 0,10.41 -0.97,21.49 -2.93,33.22 -1.95,11.72 -5.21,23.11 -9.76,34.19 -4.58,11.05 -11.08,20.18 -19.54,27.35 -8.49,7.15 -18.57,10.75 -30.29,10.75 -23.44,0 -44.3,-8.48 -62.52,-25.4 -18.26,-16.94 -33.22,-37.12 -44.94,-60.57 -11.73,-23.45 -20.86,-48.21 -27.37,-74.25 -6.52,-26.08 -9.76,-48.85 -9.76,-68.39 0,-35.17 5.86,-69.7 17.59,-103.56 -44.3,-138.08 -110.74,-262.49 -199.31,-373.2 -5.31,-6.39 -9.81,-12.78 -13.84,-19.17 -19.53,-23.88 -40.27,-47.14 -62.35,-69.73 -27.35,-28.03 -55.38,-52.46 -84.01,-73.27 -28.67,-20.86 -54.71,-31.27 -78.17,-31.27 -15.62,0 -27.68,8.12 -36.14,24.42 -8.49,16.28 -14.65,35.17 -18.56,56.67 -3.91,21.49 -6.2,42.64 -6.84,63.5 -0.67,20.82 -0.97,36.45 -0.97,46.9 0,33.85 2.25,70 6.83,108.44 4.55,38.41 12.03,74.55 22.47,108.44 5.2,14.33 12.37,33.22 21.5,56.67 9.09,23.44 13.68,42.31 13.68,56.66 0,13.01 -4.89,21.49 -14.66,25.41 -9.77,3.9 -19.88,5.86 -30.29,5.86 -18.25,0 -32.24,-6.2 -42.01,-18.57 -9.76,-12.39 -17.92,-25.73 -24.42,-40.05 -6.53,-13.05 -15.97,-32.92 -28.34,-59.6 -12.39,-26.71 -27.05,-55.69 -43.96,-86.95 -16.94,-31.26 -34.86,-63.5 -53.73,-96.72 -18.9,-33.21 -38.1,-63.2 -57.64,-89.88 -19.54,-26.72 -38.43,-48.85 -56.67,-66.44 -18.25,-17.58 -34.53,-26.38 -48.85,-26.38 -11.72,0 -18.89,5.87 -21.48,17.59 -2.64,11.72 -3.92,21.5 -3.92,29.31 0,74.26 14.97,143.61 44.95,208.1 29.95,64.48 70.34,122.75 121.14,174.87 28.64,29.95 58.93,56.33 90.86,79.14 31.9,22.77 65.46,44.61 100.62,65.45 5.2,2.6 9.78,5.54 13.69,8.8 3.9,3.23 5.85,8.12 5.85,14.66 0,14.31 -7.17,27.99 -21.49,41.02 -14.35,13.01 -28.66,19.55 -42.99,19.55 -57.33,0 -112.34,-19.55 -165.11,-58.62 -52.75,-39.08 -99.64,-87.62 -140.68,-145.57 -41.03,-57.98 -73.94,-119.53 -98.67,-184.65 -11.59,-30.48 -20.35,-59.33 -26.51,-86.67 -2.85,-4.34 -5.67,-8.71 -8.65,-12.98 -13.04,-18.26 -30.29,-41.04 -51.79,-68.39 -21.48,-27.35 -44.93,-53.73 -70.34,-79.14 -25.39,-25.39 -51.77,-46.89 -79.13,-64.47 -27.36,-17.59 -52.76,-26.38 -76.2,-26.38 -27.36,0 -48.85,12.36 -64.48,37.12 -15.64,24.73 -28.03,54.05 -37.13,87.93 -9.13,33.86 -14.99,68.05 -17.58,102.58 -2.63,34.5 -3.91,61.55 -3.91,81.1 0,11.72 0.3,26.36 0.97,43.95 0.65,17.59 2.94,31.58 6.84,42.02 2.6,9.09 7.48,18.86 14.66,29.3 7.14,10.42 13.34,19.54 18.56,27.36 15.63,26.04 31.57,51.11 47.87,75.23 16.28,24.09 31.57,49.15 45.92,75.23 29.95,53.4 59.26,113.96 87.93,181.71 28.64,67.72 54.71,137.41 78.16,209.08 23.44,71.62 42.31,143.27 56.66,214.92 14.32,71.63 21.5,138.07 21.5,199.31 0,18.22 -1.96,37.76 -5.87,58.61 -3.91,20.83 -10.11,40.07 -18.56,57.64 -8.49,17.59 -20.21,31.91 -35.17,42.99 -14.99,11.06 -34.2,16.61 -57.64,16.61 -28.67,0 -57,-10.44 -85,-31.26 -28.03,-20.85 -54.07,-46.59 -78.16,-77.18 -24.12,-30.62 -45.28,-62.23 -63.5,-94.77 -18.25,-32.57 -32.58,-60.57 -42.99,-84.01 -54.7,-126.37 -93.14,-256.31 -115.28,-389.82 -22.17,-133.54 -33.22,-268.67 -33.22,-405.44 0,-24.76 0.98,-57.34 2.93,-97.7 1.57,-32.36 4.23,-66.69 7.88,-102.8 -1.01,-1.61 -2.02,-3.22 -2.98,-4.67 -20.85,-37.8 -46.26,-74.58 -76.21,-110.39 -29.98,-35.85 -63.5,-67.42 -100.62,-94.77 -37.13,-27.35 -76.88,-49.52 -119.19,-66.44 -42.35,-16.94 -86.31,-25.39 -131.9,-25.39 -19.53,0 -39.07,1.95 -58.61,5.85 18.22,2.6 34.83,8.8 49.82,18.57 14.96,9.77 28.98,21.16 42.01,34.19 26.04,24.73 49.49,55.69 70.34,92.82 20.83,37.12 38.75,76.2 53.74,117.24 14.96,41.03 26.68,82.36 35.17,124.07 8.45,41.67 12.7,80.11 12.7,115.28 0,26.04 -2.63,52.09 -7.82,78.16 -5.22,26.04 -13.67,49.15 -25.4,69.36 -11.72,20.19 -28.02,36.45 -48.85,48.85 -20.85,12.36 -46.89,18.56 -78.15,18.56 -31.27,0 -63.51,-9.77 -96.72,-29.3 -33.22,-19.55 -65.16,-43.67 -95.75,-72.31 -30.62,-28.66 -58.95,-58.3 -85,-88.9 -26.07,-30.61 -47.57,-57.64 -64.48,-81.08 2.6,22.13 5.53,44.6 8.8,67.41 3.24,22.77 4.88,45.25 4.88,67.41 0,11.72 -2.63,24.43 -7.81,38.1 -5.22,13.67 -12.4,26.69 -21.49,39.08 -9.14,12.37 -19.88,22.46 -32.25,30.29 -12.4,7.82 -25.09,11.72 -38.1,11.72 -16.94,0 -29.64,-5.86 -38.1,-17.59 -8.48,-11.72 -14.66,-25.4 -18.57,-41.03 -3.9,-15.63 -6.19,-32.25 -6.83,-49.83 -0.67,-17.58 -1.65,-32.24 -2.93,-43.96 -5.22,-45.61 -9.77,-91.19 -13.69,-136.78 -3.9,-45.6 -8.48,-91.19 -13.67,-136.77 -1.31,-13.03 -2.62,-30.62 -3.91,-52.75 -1.31,-22.17 -3.9,-39.09 -7.81,-50.81 -23.45,-70.35 -48.18,-146.88 -74.25,-229.591 -26.04,-82.707 -49.83,-167.063 -71.32,-253.035 -21.49,-85.969 -39.08,-170.973 -52.76,-254.985 -13.67,-84.023 -20.51,-162.492 -20.51,-235.449 0,-15.633 1.31,-35.176 3.91,-58.621 2.62,-23.445 7.81,-45.582 15.63,-66.4415 7.81,-20.8125 18.89,-38.7383 33.21,-53.7305 14.35,-14.9609 32.57,-22.4687 54.71,-22.4687 16.95,0 32.24,4.2422 45.92,12.7031 13.68,8.4844 26.38,19.2305 38.1,32.2383 11.72,13.0351 21.8,27.0469 30.29,42.0083 8.46,14.992 15.3,29.003 20.51,42.011 22.14,52.114 40.7,117.239 55.69,195.395 14.96,78.156 28,159.25 39.08,243.269 11.05,84.016 20.52,166.754 28.33,248.145 7.82,81.426 14.32,152.078 19.55,212.012 14.31,-20.86 33.85,-37.8 58.61,-50.809 24.73,-13.039 51.78,-23.449 81.09,-31.262 29.31,-7.82 58.62,-13.008 87.93,-15.633 29.31,-2.589 55.69,-3.91 79.13,-3.91 57.31,0 110.4,8.157 159.25,24.426 48.85,16.27 93.79,39.078 134.82,68.388 41.03,29.31 78.8,63.81 113.33,103.56 18.91,21.77 36.87,44.73 54.03,68.67 3.4,-18.99 7.13,-37.97 11.42,-56.95 10.41,-46.25 24.73,-87.93 42.99,-125.05 18.22,-37.126 40.05,-67.411 65.45,-90.856 25.4,-23.446 56.33,-35.172 92.82,-35.172 40.36,0 80.75,12.699 121.14,38.105 40.36,25.395 78.79,56.325 115.28,92.813 30.49,30.48 58.34,62.92 83.84,97.07 0.38,-3.04 0.71,-6.01 1.15,-9.15 3.24,-23.44 9.09,-45.61 17.58,-66.43 8.46,-20.85 20.52,-38.44 36.16,-52.756 15.63,-14.351 35.16,-21.496 58.62,-21.496 26.03,0 52.41,9.77 79.13,29.312 26.68,19.54 52.41,42.98 77.17,70.34 24.74,27.35 47.21,55.69 67.42,85 20.18,29.31 36.78,53.73 49.82,73.27 -1.31,-23.45 -0.67,-52.45 1.96,-86.95 2.59,-34.53 9.09,-67.75 19.54,-99.65 10.41,-31.93 25.39,-59.295 44.94,-82.068 19.54,-22.773 45.58,-34.191 78.15,-34.191 33.87,0 68.05,9.765 102.59,29.308 34.49,19.539 67.07,43.631 97.69,72.291 30.59,28.64 58.93,59.26 85,91.84 20.42,25.51 38.35,48.56 53.98,69.29 9.76,12.2 19.44,25.56 29.04,40.13 18.87,28.64 36.79,58.62 53.74,89.89 16.92,31.26 32.23,62.82 45.92,94.75 13.68,31.91 25.06,60.89 34.19,86.95 15.63,-23.44 31.56,-51.13 47.87,-83.04 16.28,-31.92 30.93,-64.81 43.96,-98.66 13.01,-33.9 23.75,-67.76 32.25,-101.61 8.45,-33.89 12.69,-65.8 12.69,-95.74 0,-49.53 -13.37,-90.22 -40.05,-122.13 -26.71,-31.906 -66.12,-47.871 -118.21,-47.871 -26.08,0 -50.16,2.625 -72.3,7.82 -22.16,5.215 -44.3,14.954 -66.44,29.305 -6.53,3.91 -12.06,7.146 -16.6,9.766 -4.59,2.59 -10.75,3.91 -18.57,3.91 -20.81,0 -31.25,-9.766 -31.25,-29.305 0,-9.097 1.95,-16.918 5.85,-23.453 3.91,-6.5 9.1,-13.004 15.64,-19.539 28.63,-27.352 64.78,-44.938 108.44,-52.75 43.62,-7.82 84.33,-11.73 122.12,-11.73 70.34,0 134.49,8.156 192.46,24.425 57.95,16.309 110.7,40.055 158.27,71.317 47.54,31.269 91.5,69.675 131.9,115.285 26.02,29.39 51.23,61.25 75.64,95.52 -2.84,-21.87 -5.86,-43.64 -9.23,-65.23 -5.22,-33.22 -7.81,-66.77 -7.81,-100.63 0,-10.44 0.64,-22.465 1.95,-36.148 1.28,-13.68 4.55,-26.372 9.77,-38.106 5.19,-11.719 12.03,-21.797 20.51,-30.277 8.46,-8.457 19.85,-12.707 34.2,-12.707 14.32,0 27.36,3.91 39.08,11.722 11.72,7.821 21.79,17.586 30.28,29.309 8.46,11.73 16.28,24.121 23.45,37.129 7.15,13.008 13.35,25.402 18.56,37.128 7.83,16.91 21.8,44.6 42.02,83.04 20.17,38.41 43.62,81.73 70.34,129.94 26.68,48.17 55.68,98 86.95,149.47 31.26,51.45 61.21,98.68 89.87,141.66 28.65,42.99 55.36,78.16 80.11,105.51 24.74,27.37 44.27,41.04 58.63,41.04 10.41,0 16.27,-6.2 17.58,-18.56 1.29,-12.4 1.96,-21.83 1.96,-28.33 v -15.63 c -6.54,-70.35 -13.37,-140.69 -20.52,-211.03 -7.17,-70.34 -10.75,-140.69 -10.75,-211.02 0,-18.27 0.31,-42.69 0.98,-73.28 0.64,-30.62 4.21,-60.26 10.75,-88.9 6.5,-28.671 16.6,-53.397 30.28,-74.257 13.68,-20.82 34.2,-31.262 61.55,-31.262 45.58,0 91.5,12.704 137.75,38.098 46.23,25.41 89.54,57.311 129.93,95.751 40.38,38.41 76.86,79.77 109.43,124.07 32.54,44.27 58.62,85.3 78.16,123.1 2.59,5.19 5.19,10.08 7.81,14.65 2.6,4.55 3.91,10.08 3.91,16.62 0,10.4 -1.95,19.54 -5.85,27.34 z m -944.74,452.35 v 0 c 7.15,54.03 16.28,115.28 27.36,183.67 11.05,68.39 24.08,139.36 39.07,212.98 14.96,73.58 31.26,140.98 48.85,202.23 17.59,61.21 35.81,111.38 54.72,150.45 18.86,39.08 38.73,58.63 59.59,58.63 6.51,0 11.05,-3.92 13.68,-11.74 2.59,-7.81 4.88,-16.93 6.84,-27.35 1.95,-10.44 2.92,-20.84 2.92,-31.26 0,-10.44 0,-17.58 0,-21.49 0,-59.94 -8.48,-127.01 -25.39,-201.25 -16.95,-74.26 -38.1,-149.18 -63.51,-224.72 -25.4,-75.56 -53.73,-148.49 -84.99,-218.84 -31.27,-70.34 -61.89,-132.23 -91.84,-185.62 1.28,22.13 5.53,60.23 12.7,114.31 z M 1791.54,666.629 v 0 c -11.08,-111.375 -25.74,-222.414 -43.96,-333.149 -1.28,-6.503 -3.91,-21.156 -7.82,-43.957 -3.91,-22.781 -8.79,-46.906 -14.65,-72.3 -5.86,-25.399 -12.7,-48.18 -20.52,-68.391 -7.82,-20.18 -15.63,-30.281 -23.45,-30.281 -6.5,0 -11.05,3.902 -13.67,11.722 -2.6,7.809 -4.89,16.606 -6.84,26.379 -1.96,9.766 -2.93,19.875 -2.93,30.282 0,9.129 0,15.629 0,19.539 0,50.808 4.58,112.05 13.68,183.675 9.12,71.653 21.49,144.926 37.12,219.817 15.63,74.922 32.91,147.219 51.78,216.894 18.86,69.696 38.1,127.973 57.63,174.871 -6.52,-112.011 -15.32,-223.722 -26.37,-335.101 z m 393.72,469.921 v 0 c -35.17,-37.8 -72.3,-56.66 -111.37,-56.66 -27.36,0 -47.24,4.55 -59.6,13.68 -12.4,9.09 -24.42,13.68 -36.15,13.68 -5.22,0 -9.76,-1.96 -13.68,-5.87 1.29,10.41 2.93,28.33 4.89,53.73 1.95,25.41 4.55,51.79 7.81,79.14 3.24,27.35 6.84,52.76 10.75,76.2 3.91,23.45 7.81,38.41 11.73,44.95 10.41,19.53 27.99,46.21 52.75,80.11 24.73,33.85 51.78,66.74 81.09,98.67 29.31,31.91 59.26,59.9 89.88,84.02 30.6,24.09 56.97,36.15 79.14,36.15 24.73,0 40.69,-11.09 47.87,-33.22 7.14,-22.17 10.75,-42.99 10.75,-62.53 0,-32.58 -7.51,-75.89 -22.48,-129.93 -14.98,-54.08 -35.5,-106.82 -61.54,-158.28 -26.08,-51.47 -56.67,-96.07 -91.84,-133.84 z m 666.29,480.68 v 0 c 0,9.09 0,18.86 0,29.31 0,93.78 11.38,191.78 34.19,294.06 22.78,102.24 47.88,198.32 75.22,288.21 5.2,15.63 12.71,39.08 22.48,70.34 9.77,31.26 21.49,61.86 35.17,91.83 13.68,29.96 29.61,56.33 47.87,79.14 18.23,22.77 37.77,34.19 58.62,34.19 7.81,0 13.68,-2.93 17.58,-8.79 3.91,-5.86 6.84,-12.7 8.8,-20.52 1.95,-7.81 2.93,-16.29 2.93,-25.4 0,-7.81 0,-13.67 0,-17.58 0,-62.53 -9.77,-131.59 -29.31,-207.12 -19.54,-75.56 -43.96,-151.43 -73.28,-227.63 -29.3,-76.21 -61.88,-149.82 -97.69,-220.8 -35.84,-71.02 -69.36,-133.21 -100.63,-186.6 -1.31,10.41 -1.95,19.54 -1.95,27.36" /></g></g></svg>